<?xml version="1.0" encoding="utf-8"?>
<!-- Generator: Adobe Illustrator 27.8.1, SVG Export Plug-In . SVG Version: 6.00 Build 0)  -->
<svg version="1.1" id="Layer_1" xmlns="http://www.w3.org/2000/svg" xmlns:xlink="http://www.w3.org/1999/xlink" x="0px" y="0px"
	 viewBox="0 0 1920 300" style="enable-background:new 0 0 1920 300;" xml:space="preserve">
<style type="text/css">
	.st0{fill:#F2E7D7;}
</style>
<g>
	<g>
		<path class="st0" d="M450.8,158.3c0,49.1-38.4,85.9-85.9,85.9c-47.6,0-85.9-36.8-85.9-85.9V9.1h39v149.2
			c0,26.9,21.1,46.8,46.8,46.8c25.7,0,46.8-18.4,46.8-46.8V9.1h39.1v149.2H450.8z"/>
		<path class="st0" d="M493,9.1h92.5c45.3,0,72.5,30.3,72.5,67.5c0,33.4-27.6,67.1-75.2,67.1h-50.6v97.8H493V9.1z M532.1,46.7v59.5
			h50.3c24.6,0,36.4-13.4,36.4-29.5c0-15.7-11.9-29.9-33.8-29.9L532.1,46.7L532.1,46.7z"/>
		<path class="st0" d="M848.5,6.4c65.6,0,116.6,52.9,116.6,118.9c0,68.3-53.3,118.9-116.6,118.9c-66.4,0-116.6-50.6-116.6-118.9
			C731.9,59.3,782.9,6.4,848.5,6.4z M848.5,205.5c44.9,0,76.7-35.7,76.7-80.2c0-43.7-30.7-80.2-76.7-80.2s-76.7,36.4-76.7,80.2
			C771.8,169.8,803.7,205.5,848.5,205.5z"/>
		<path class="st0" d="M992,241.5V9.1h151.5v37.6h-112.4v59.5h82.1v37.6h-82.1v97.8L992,241.5L992,241.5z"/>
		<path class="st0" d="M1328.4,46.7h-50.6V9.1h89.8v206.8c0,54.1-33.4,79.8-74.8,79.8c-43.3,0-74.4-29.9-74.4-74.8v-18.4h38.4v16.1
			c0,26.9,16.5,39.5,36.1,39.5c19.9,0,35.7-13.8,35.7-39.9V46.7H1328.4z"/>
		<path class="st0" d="M1511,6.4c65.6,0,116.6,52.9,116.6,118.9c0,68.3-53.3,118.9-116.6,118.9c-66.4,0-116.6-50.6-116.6-118.9
			C1394.4,59.3,1445.4,6.4,1511,6.4z M1511,205.5c44.9,0,76.7-35.7,76.7-80.2c0-43.7-30.7-80.2-76.7-80.2s-76.7,36.4-76.7,80.2
			C1434.3,169.8,1466.2,205.5,1511,205.5z"/>
	</g>
	<g>
		<g>
			<path class="st0" d="M1886.5,102.8l-23.8,35.4c-39,56.7-64,67.1-99.3,67.1h-14.7l8.4-12.1l103-147.3
				c-25-25.2-59.2-39.5-94.9-39.5C1706.7,6.4,1646,51,1646,125.5c0,77.4,60,118,119.2,118c36.3,0,76.3-6.5,130.7-84.3l24.1-34.1
				L1886.5,102.8z M1712.1,187.1l-6.4-7.8c-11.6-14.2-17.8-33-17.8-54.3c0-40.8,26.6-82.1,77.4-82.1c10.9,0,22,1.9,32.9,5.8l9.6,3.4
				l-5.9,8.3L1718,178.9L1712.1,187.1z"/>
		</g>
	</g>
	<g>
		<g>
			<path class="st0" d="M230.2,101.6l-26.7,42.6c-31.8,50.4-57.1,60.7-85.4,60.7c-44.3,0-76.4-32.9-76.4-78.3
				c0-39.4,26.3-79.4,76.4-79.4h12.2v71.4h41.2V19.3c-12.6-5.4-34.7-10.2-56.9-10.2C85.8,9.1,57.2,20.9,36,41.6
				c-16.4,16-36,44.7-36,90.3c0,41.5,19.7,67.6,36.2,82.2c21.7,19.1,51.6,30.1,82,30.1c31.2,0,72.7-8.5,116.5-75.1l30.1-45.6
				L230.2,101.6z"/>
		</g>
	</g>
</g>
</svg>
